<?xml version="1.0" standalone="no"?>
<!DOCTYPE svg PUBLIC "-//W3C//DTD SVG 20010904//EN"
 "http://www.w3.org/TR/2001/REC-SVG-20010904/DTD/svg10.dtd">
<svg version="1.0" xmlns="http://www.w3.org/2000/svg"
 width="700.000000pt" height="700.000000pt" viewBox="0 0 700.000000 700.000000"
 preserveAspectRatio="xMidYMid meet">
<metadata>
Created by potrace 1.11, written by Peter Selinger 2001-2013
</metadata>
<g transform="translate(0.000000,700.000000) scale(0.100000,-0.100000)"
fill="#000000" stroke="none">
<path d="M1947 5543 c-1 -1 -31 -2 -67 -4 -117 -4 -223 -52 -302 -137 -70 -75
-65 -63 -235 -552 -47 -135 -91 -263 -98 -285 -8 -22 -47 -137 -89 -255 -114
-328 -221 -636 -253 -730 l-29 -85 1 -1180 c1 -649 5 -1196 9 -1215 12 -52 34
-90 75 -133 74 -79 131 -93 361 -92 96 1 191 5 210 10 98 22 198 126 214 221
2 16 5 102 5 191 l1 162 1750 0 1750 0 0 -169 c0 -206 14 -256 92 -332 75 -73
127 -85 363 -83 183 1 192 2 245 27 68 33 122 87 152 153 l22 50 1 1190 2
1190 -29 90 c-17 50 -63 185 -103 300 -40 116 -94 271 -120 345 -51 146 -118
340 -170 490 -19 52 -70 200 -114 328 -44 129 -92 255 -107 282 -26 49 -119
150 -137 150 -6 0 -18 6 -26 13 -23 19 -99 46 -151 53 -37 5 -3218 12 -3223 7z
m3373 -1088 c120 -358 216 -653 213 -657 -4 -7 -4073 -12 -4073 -5 0 14 434
1303 440 1307 5 3 727 5 1606 5 l1597 0 217 -650z m-3277 -1273 c217 -77 336
-317 268 -541 -23 -75 -86 -170 -142 -212 -236 -180 -562 -93 -679 181 -33 77
-37 216 -9 297 65 190 235 306 434 298 39 -2 96 -12 128 -23z m3202 2 c253
-86 365 -366 246 -614 -45 -95 -154 -186 -259 -216 -287 -84 -562 123 -562
422 0 199 136 371 332 420 65 16 175 11 243 -12z"/>
</g>
</svg>
